<svg xmlns="http://www.w3.org/2000/svg" viewBox="0 0 1800 986"><defs><style>.cls-1{fill:#2e45e8;}</style></defs><title>Blue Background</title><g id="Layer_2" data-name="Layer 2"><g id="Layer_1-2" data-name="Layer 1"><rect class="cls-1" x="1700" y="274" width="100" height="100"/><rect class="cls-1" x="1327" y="224" width="100" height="100"/><rect class="cls-1" x="1250" width="100" height="100"/><rect class="cls-1" x="1600" y="568" width="100" height="100"/><rect class="cls-1" x="1118" y="458" width="100" height="100"/><rect class="cls-1" x="800" y="189" width="100" height="100"/><rect class="cls-1" x="566" y="174" width="100" height="100"/><rect class="cls-1" y="189" width="100" height="100"/><rect class="cls-1" x="168" y="389" width="100" height="100"/><rect class="cls-1" x="374" y="124" width="100" height="100"/><rect class="cls-1" x="23" y="728" width="100" height="100"/><rect class="cls-1" x="190" y="886" width="100" height="100"/><rect class="cls-1" x="625" y="550" width="100" height="100"/><rect class="cls-1" x="750" y="618" width="100" height="100"/><rect class="cls-1" x="725" y="878" width="100" height="100"/><rect class="cls-1" x="1068" y="728" width="100" height="100"/><rect class="cls-1" x="1434" y="707" width="100" height="100"/><rect class="cls-1" x="1384" y="878" width="100" height="100"/></g></g></svg>