<svg xmlns="http://www.w3.org/2000/svg" viewBox="0 0 438.97 584.85"><title>DeadTree</title><g id="Layer_2" data-name="Layer 2"><g id="Layer_1-2" data-name="Layer 1"><path d="M255.18.07l-.1,1.56c-.05,1-.23,2.55-.26,4.55a118.36,118.36,0,0,0,.85,17.24c.83,7.39,2.55,16.26,4.76,26.44,1.1,5.09,2.3,10.52,3.45,16.3s2.25,11.93,2.93,18.44a259,259,0,0,1,.82,42.13c-.76,14.91-2.39,30.51-3.75,46.5a962.62,962.62,0,0,0-3.15,100.49c.09,4.27.19,8.6.36,12.8s.4,8.33.8,12.33c.79,8,2.23,15.53,4.85,22.06a57.75,57.75,0,0,0,4.86,9.46c2,3.24,4.35,6.71,6.76,10.57a82.43,82.43,0,0,1,6.82,13.15,68.52,68.52,0,0,1,4,14.91,110.34,110.34,0,0,1,.25,27.78c-.42,4.29-1,8.4-1.55,12.35s-1.17,7.78-1.75,11.6c-2.41,15.23-5,29.53-7.43,42.72s-4.59,25.29-6.42,36.09c-.87,5.38-1.73,10.47-2.41,15.18q-.54,3.54-1,6.82T268,527.8c-.58,4-1,7.6-1.35,10.8l-.53,4.5c-.13,1.4-.26,2.69-.37,3.87-.24,2.37-.44,4.3-.58,5.77l-.28,3a42.65,42.65,0,0,1-7.72,20.76c-3.91,5.25-9.14,8.58-14.72,8.42s-10.48-3.89-13.86-10-4.95-14.62-3.93-23.67c.1-1.14.58-4.4,1.41-9.48.2-1.27.42-2.66.66-4.16l.87-4.79c.63-3.4,1.31-7.24,2.19-11.41l1.35-6.56q.74-3.39,1.55-7c1.05-4.9,2.3-10.06,3.59-15.57,2.65-10.95,5.72-23.06,9.05-36s6.9-26.82,10.28-41.35c3.3-14.73,7.11-29.57,6.11-42.39a41.81,41.81,0,0,0-1.68-9.16,55.16,55.16,0,0,0-4.08-9.41c-1.8-3.43-3.95-7.12-6.11-11.29a82.57,82.57,0,0,1-5.78-13.77,104.2,104.2,0,0,1-4.26-28.6c-.12-4.63,0-9.17.11-13.62s.36-8.78.59-13.16a970.66,970.66,0,0,1,10.68-101.72c2.55-16,5.29-31.28,7.11-45.77a252.77,252.77,0,0,0,2.23-40.83c-.2-6.32-.83-12.36-1.53-18.14s-1.5-11.26-2.23-16.43c-1.46-10.34-2.53-19.43-2.81-26.95a118.2,118.2,0,0,1,.43-17.41c.17-2,.47-3.51.59-4.53Z" transform="translate(-0.09 -0.07)"/><path d="M375,240.84l-.3.15c-.19.11-.48.25-.86.42a18.44,18.44,0,0,1-3.51,1.1c-1.54.36-3.45.62-5.56,1.13a27.82,27.82,0,0,0-6.71,2.72c-2.37,1.25-4.89,2.82-7.79,4.12A65.24,65.24,0,0,1,341,253.9c-6.65,1.93-13.93,3.07-21.08,4.37a210.84,210.84,0,0,0-20.74,4.9c-6.64,1.86-12.92,3.68-18.5,5.05a112.79,112.79,0,0,1-20.45,3.42,10.8,10.8,0,0,1-2.72-.25,7.5,7.5,0,0,1-2.2-.95,3.52,3.52,0,0,1-1.89-3.05,3.91,3.91,0,0,1,2-3,8,8,0,0,1,2-.89,9.1,9.1,0,0,1,2.45-.4,118.31,118.31,0,0,0,19.3-1.95c5.48-.93,11.81-2.28,18.61-3.67a215.41,215.41,0,0,1,21.5-3.45c7.3-.78,14.49-1.38,21-2.77a63,63,0,0,0,9.25-2.62c2.86-1,5.45-2.4,8-3.5a29.61,29.61,0,0,1,7.14-2.3c2.2-.35,4.11-.47,5.66-.71a18.62,18.62,0,0,0,3.53-.82,9.23,9.23,0,0,0,.89-.36Z" transform="translate(-0.09 -0.07)"/><path d="M310.61,239.9l-5.28,3.29-5.43,3.38c-2,1.23-4.08,2.61-6.35,3.82s-4.69,2.08-6.63,3.23a17.65,17.65,0,0,0-4.63,4.05,34.7,34.7,0,0,0-2.67,3.77l-1.08,1.78c-.66,1-1.75,1.59-2.45,1.16s-.72-1.64,0-2.73c.09-.13.51-.77,1.24-1.78a35.36,35.36,0,0,1,3.15-3.85,19.85,19.85,0,0,1,5.53-4.17c2.26-1.12,4.71-1.77,6.94-2.78s4.45-2.23,6.53-3.31l5.66-3Z" transform="translate(-0.09 -0.07)"/><path d="M352.35,270s-3.29.27-8.27.43c-2.49.08-5.4.13-8.53.09a61.4,61.4,0,0,1-9.93-.66,21.78,21.78,0,0,1-5-1.51c-1.59-.68-3-1.42-4.43-1.95a39.66,39.66,0,0,0-8.14-2.16c-5-.77-8.58-.87-9-.94-1.66-.16-2.94-1.16-2.84-2.23s1.53-1.83,3.23-1.67a93,93,0,0,1,9.25,1.6,42.5,42.5,0,0,1,8.56,2.94c1.51.7,2.93,1.58,4.35,2.31a19.51,19.51,0,0,0,4.44,1.7,61,61,0,0,0,9.57,1.33c3.1.27,6,.44,8.47.54C349.05,270,352.35,270,352.35,270Z" transform="translate(-0.09 -0.07)"/><path d="M147.72,276.2l13.53,5.61,6.57,2.72c1.17.49,2.35,1,3.56,1.37a17.85,17.85,0,0,0,3.77.73c2.63.24,5.47,0,8.47.13a60.54,60.54,0,0,1,9,1,59.25,59.25,0,0,1,8.83,2.37c2.85,1,5.53,2.12,8.11,3.05a39.27,39.27,0,0,0,7.36,2,37.66,37.66,0,0,0,6.84.32l16.21-.73c3,0,5.41,1.48,5.47,3.4s-2.33,3.49-5.33,3.53c-.76,0-7.16-.08-16.42-.35a42.72,42.72,0,0,1-7.8-.95,43.71,43.71,0,0,1-8.11-2.86c-2.63-1.17-5.21-2.48-7.82-3.61a57.44,57.44,0,0,0-8.1-2.82,58.89,58.89,0,0,0-8.45-1.56c-2.8-.32-5.7-.3-8.55-.77a19,19,0,0,1-4.14-1.12c-1.29-.51-2.46-1.12-3.59-1.69l-6.35-3.2Z" transform="translate(-0.09 -0.07)"/><path d="M184,280.22l2.85.65c1.71.41,4,.87,6.31,1.49a7.45,7.45,0,0,1,3.21,1.73,8.7,8.7,0,0,1,1.85,2.7,18.68,18.68,0,0,1,1.08,3.18c.13.59-.07,1.13-.45,1.2s-.77-.33-.9-.9a20.49,20.49,0,0,0-.8-3,7.76,7.76,0,0,0-1.45-2.48A6.68,6.68,0,0,0,193,283c-2.2-.77-4.48-1.4-6.15-1.93Z" transform="translate(-0.09 -0.07)"/><path d="M169,298.08l6.95-.15,7.15-.15a26.51,26.51,0,0,1,4.14.12,9.19,9.19,0,0,1,2.19.57,16.18,16.18,0,0,1,2,1c2.25,1.43,4.92,1.49,7.52,1.36a43.55,43.55,0,0,0,7.07-.95,45.79,45.79,0,0,0,7.13-2.23c1.27-.48,2.57-.26,2.95.57s-.41,2-1.8,2.51a43.24,43.24,0,0,1-7.78,1.88,45.16,45.16,0,0,1-7.54.46,22.09,22.09,0,0,1-4.27-.41,12.38,12.38,0,0,1-2.17-.68,10.5,10.5,0,0,1-2-1.12,15.47,15.47,0,0,0-1.69-1.06,7.71,7.71,0,0,0-1.81-.61,25.53,25.53,0,0,0-3.93-.4l-7.14-.37Z" transform="translate(-0.09 -0.07)"/><path d="M360.94,288.76l-1,.52a10.14,10.14,0,0,1-1.28.57,17.49,17.49,0,0,1-1.78.66,37.88,37.88,0,0,1-5,1.23c-2,.36-4.19.63-6.61.95a69.06,69.06,0,0,0-7.67,1.36,24,24,0,0,0-7.68,3.44,76.27,76.27,0,0,0-7.13,5.94L315.43,310l-14.52,12.93a67.36,67.36,0,0,1-7.46,5.74,40.11,40.11,0,0,1-4,2.25,34.6,34.6,0,0,1-4,1.64,48,48,0,0,1-13.29,2.24c-3.3.13-5.34.06-5.76,0-3.41-.17-5.94-2.11-5.79-4.22s3-3.61,6.16-3.45c.4,0,2.32.19,5.31.28a41.94,41.94,0,0,0,11.5-1.1,28.3,28.3,0,0,0,6.84-2.75,60.2,60.2,0,0,0,7.19-4.76L313,307l7.77-6a76.78,76.78,0,0,1,7.83-5.59,25.9,25.9,0,0,1,8.59-3.12,66.61,66.61,0,0,1,7.94-.81c2.44-.14,4.67-.25,6.62-.46a36.6,36.6,0,0,0,5-.85,18.59,18.59,0,0,0,1.81-.52,10.54,10.54,0,0,0,1.31-.47Z" transform="translate(-0.09 -0.07)"/><path d="M316.4,287.35l-.27.33a11.48,11.48,0,0,1-.81.91,19.36,19.36,0,0,1-3.45,2.66,57.93,57.93,0,0,0-5.08,3.38,16.2,16.2,0,0,0-4.21,5.35c-2.1,4.21-2.9,9-3.65,12.67s-1,6.22-1.07,6.52c-.2,1.18-1,2.05-1.75,1.93s-1.25-1.2-1-2.42c.06-.3.57-2.89,1.53-6.55.49-1.83,1.06-3.92,1.8-6.14a32.51,32.51,0,0,1,3-6.69,17.18,17.18,0,0,1,4.9-5.38,56.9,56.9,0,0,1,5.4-3.05,19.62,19.62,0,0,0,3.59-2.37c.38-.35.68-.63.87-.84Z" transform="translate(-0.09 -0.07)"/><path d="M340.7,307.78s-5.72,1-11.62,1.46-11.92.55-12.29.53c-.75,0-1.33-.43-1.31-.91s.63-.84,1.37-.81c.36,0,6.31.44,12.19.33S340.7,307.78,340.7,307.78Z" transform="translate(-0.09 -0.07)"/><path d="M86,221.18l1.67.42c1.08.26,2.68.64,4.72,1.05a127.06,127.06,0,0,0,17.1,2.29c3.56.23,7.43.32,11.51.22,2,0,4.12-.17,6.32-.28a41.35,41.35,0,0,1,6.91.14,21.61,21.61,0,0,1,3.64.75,30.84,30.84,0,0,1,3.46,1.28l3.22,1.43c1,.45,2.1.83,3.16,1.25a70.59,70.59,0,0,0,13.52,3.13c9.34,1.25,19,1.29,28.41,2.26s18,2.81,25.29,4.2,13.43,2.43,17.86,2.94c2.21.29,4,.39,5.31.53l2.42.15a14.87,14.87,0,0,1,3.2.64,12.3,12.3,0,0,1,2.62,1.29,5.18,5.18,0,0,1,2.53,4,4.67,4.67,0,0,1-2.63,4,9.11,9.11,0,0,1-3,1.13,11.85,11.85,0,0,1-3.65.21l-2.69-.3c-1.43-.23-3.41-.48-5.77-.95-4.73-.86-11.1-2.37-18.35-4.34s-15.46-4.25-24.23-5.84-18.57-2.32-28.32-4.35A75,75,0,0,1,146,234c-1.12-.54-2.25-1-3.33-1.61l-3.08-1.64a20.18,20.18,0,0,0-5.92-2.19c-4.1-.8-8.52-.51-12.7-.77s-8.07-.59-11.66-1.09a130,130,0,0,1-17-3.57c-2-.57-3.59-1.07-4.65-1.41Z" transform="translate(-0.09 -0.07)"/><path d="M138,214.1l8.72,2.66c2.62.83,5.71,1.63,9,2.89a24.57,24.57,0,0,1,4.86,2.49,47.65,47.65,0,0,0,4.52,3,36.13,36.13,0,0,0,4.94,2.06l5.07,1.79,9.1,3.22,6.64,2.36,2,.73c.55.21.92.39,1,.45a4,4,0,0,1,2.13,2.48c.23,1-.25,1.65-.81,1.77a7.83,7.83,0,0,1-1.67,0,3.4,3.4,0,0,1-1.59-.41c-.08,0-.31-.17-.74-.36l-1.92-.84-6.47-2.81L174,231.69l-4.94-2.16A39.61,39.61,0,0,1,164,227a47.27,47.27,0,0,1-4.46-3.39,23.1,23.1,0,0,0-4.39-2.67c-3.06-1.44-6.12-2.49-8.66-3.51Z" transform="translate(-0.09 -0.07)"/><path d="M165.85,217.63l.5.37a10.49,10.49,0,0,1,1.23,1.11,11.31,11.31,0,0,1,2.58,4.35c.3.9.4,1.84.69,2.59a4.37,4.37,0,0,0,1.28,1.76,11.22,11.22,0,0,0,2,1.31c.39.22.6.61.46.87s-.58.3-1,.06a10.94,10.94,0,0,1-2.11-1.58,5.28,5.28,0,0,1-1.36-2.18c-.27-.91-.28-1.83-.51-2.69a10.86,10.86,0,0,0-2.19-4.38,11.37,11.37,0,0,0-1.13-1.19Z" transform="translate(-0.09 -0.07)"/><path d="M95.49,245.29l10.11-1.85,10.4-1.89c3.81-.69,7.87-1.47,12-2.11l6.18-1c2.05-.34,4.11-.5,6.08-.68,4-.34,7.65-.56,10.82-.86a84.1,84.1,0,0,0,11-1.65c1.95-.39,3.78.21,4.16,1.51s-1,2.82-3.21,3.26c-.26,0-1.55.28-3.6.49s-4.85.41-8.11.48-7,0-10.88.09c-2,0-3.95,0-6,.23l-6.15.55c-4.11.32-8.24.8-12.09,1.21l-10.52,1.12Z" transform="translate(-0.09 -0.07)"/><path d="M121.25,237.47l5.15,1.21c1.3.31,2.6.58,3.62.88a4.42,4.42,0,0,1,1.75.9c.29.26.31.64.12.74s-.44,0-.65-.18a3.87,3.87,0,0,0-1.44-.84c-.93-.35-2.25-.72-3.5-1.13Z" transform="translate(-0.09 -0.07)"/><path d="M131.64,246.79a6.66,6.66,0,0,0,.85.09,9.62,9.62,0,0,0,2.24-.16,63.1,63.1,0,0,0,6.6-2l3.47-1.27a16.21,16.21,0,0,0,2.86-1.47,20.47,20.47,0,0,0,2.68-2c.46-.39,1-.5,1.34-.2s.12.9-.39,1.33a18.59,18.59,0,0,1-3,2,16.62,16.62,0,0,1-3.11,1.33l-3.64,1a62,62,0,0,1-6.77,1.52,9.49,9.49,0,0,1-2.28,0A8.38,8.38,0,0,1,131.64,246.79Z" transform="translate(-0.09 -0.07)"/><path d="M.09,268.5l40.09,5.61,19.47,2.72c3.46.5,7,.92,10.77,1.66a37.74,37.74,0,0,1,11.44,3.95,25.09,25.09,0,0,1,5.24,4,42.87,42.87,0,0,1,4.11,4.86c2.45,3.3,4.53,6.53,7,8.89,5,4.79,12.23,7.16,19.9,8.7,3.83.77,7.88,1.39,11.93,2.08l12.06,2,23.55,3.91,42.24,7c25,4.18,42.46,7.12,44.48,7.53,8.07,1.65,13.77,7.18,12.71,12.37s-8.46,8.05-16.53,6.4c-2-.41-19.22-4.52-43.89-10.46l-41.62-10.05-23.21-5.61L128,321.21c-4-1-8-1.88-12.1-3a70,70,0,0,1-12.3-4.53,36.14,36.14,0,0,1-11-8.09c-3.09-3.47-5-7.19-7.07-10.34a36.39,36.39,0,0,0-3.13-4.34,18.78,18.78,0,0,0-3.7-3.26,32.34,32.34,0,0,0-9.47-4c-3.39-.93-6.93-1.62-10.34-2.37l-19.23-4.16Z" transform="translate(-0.09 -0.07)"/><path d="M113.31,279.46l1.15.07a26.17,26.17,0,0,1,3.24.44,27.41,27.41,0,0,1,10.73,4.74,26.69,26.69,0,0,1,5.7,5.61c1.77,2.3,3,5.07,4.81,7.13a14.85,14.85,0,0,0,3.28,2.64,22.72,22.72,0,0,0,4.05,1.76,78,78,0,0,0,9.25,2,46.74,46.74,0,0,1,9.79,2.66,48.49,48.49,0,0,1,8.7,4.82c5.26,3.59,9.69,7.35,13.71,9.87A37.53,37.53,0,0,0,198,326a21.21,21.21,0,0,0,4.58.71,8.61,8.61,0,0,1,3.54,1,3.82,3.82,0,0,1,2.07,2.35,3,3,0,0,1-1.33,3,7.24,7.24,0,0,1-4.83,1.24,25.79,25.79,0,0,1-6.16-1.33,44.2,44.2,0,0,1-11.79-6.43c-4.29-3.17-8.44-7.25-13.12-10.95a43.51,43.51,0,0,0-7.51-4.91,43.06,43.06,0,0,0-8.76-3.06,81.35,81.35,0,0,1-9.48-2.86,25.33,25.33,0,0,1-4.46-2.35,18,18,0,0,1-3.65-3.41c-2-2.65-2.93-5.46-4.41-7.67a25.64,25.64,0,0,0-5-5.68,26.77,26.77,0,0,0-10.07-5.35,24.53,24.53,0,0,0-3.18-.67Z" transform="translate(-0.09 -0.07)"/><path d="M71,316.82a6.84,6.84,0,0,1,3.42.36,13.25,13.25,0,0,1,3.47,2c1.23.93,2.52,2.1,4,3.29a23.73,23.73,0,0,0,2.32,1.68,14.9,14.9,0,0,0,2.73,1.29,22.73,22.73,0,0,0,6.46,1.16c2.3.13,4.73.07,7.22,0s5-.12,7.54-.21c10.12-.35,20.29-1.11,28.07-1.88S149.32,323,150,323c2.53-.23,4.71.87,4.88,2.51s-1.76,3.16-4.33,3.4c-.64.05-6.14.41-14,.62s-18.19.25-28.38-.14c-2.54-.1-5.08-.21-7.58-.34s-5-.25-7.36-.57a24.38,24.38,0,0,1-6.79-1.75,16.06,16.06,0,0,1-2.85-1.61,25.53,25.53,0,0,1-2.3-1.95c-1.38-1.31-2.56-2.56-3.7-3.55a12.79,12.79,0,0,0-3.22-2.18A6.75,6.75,0,0,0,71,316.82Z" transform="translate(-0.09 -0.07)"/><path d="M170.58,296.88s8,19.31,8.25,19.93.1,1.25-.3,1.4-.92-.23-1.15-.86S170.58,296.88,170.58,296.88Z" transform="translate(-0.09 -0.07)"/><path d="M196.45,312.31l.36.14a7.87,7.87,0,0,1,1,.45,12.7,12.7,0,0,1,3.17,2.38c2.4,2.32,4.6,6.17,7.42,9.49s5.86,6.55,8.61,8.24a12.39,12.39,0,0,0,5.11,2c.94.15,1.75.69,1.79,1.41s-1,1.33-2.21,1.12a11.64,11.64,0,0,1-2-.55,16.2,16.2,0,0,1-3.94-2.19c-2.94-2.12-5.83-5.65-8.4-9.25s-4.53-7.58-6.69-10a13,13,0,0,0-2.93-2.56,10.29,10.29,0,0,0-1-.52Z" transform="translate(-0.09 -0.07)"/><path d="M439.06,310.81l-1.39,1.07L436,313.17c-.66.51-1.49,1-2.38,1.59a83.14,83.14,0,0,1-16.07,7.76c-6.92,2.65-15.27,5-23.89,8A101.66,101.66,0,0,0,380.8,336c-2.07,1.13-4.13,2.28-6.1,3.59s-3.91,2.77-5.82,4.26c-3.82,3-7.54,6.27-11.46,9.39-1.95,1.57-3.95,3.1-6,4.53a57.56,57.56,0,0,1-6.44,3.95,66.17,66.17,0,0,1-13.4,5.44,96,96,0,0,1-12.7,2.67,149.73,149.73,0,0,1-19.58,1.22c-4.87,0-7.89-.11-8.53-.15-5.06-.31-8.89-3.22-8.65-6.4s4.46-5.47,9.35-5.17c.61,0,3.55.33,8.17.63a142,142,0,0,0,18.22.14c7.26-.53,15.6-1.83,23.59-5.48,8-3.48,15.68-9.77,24.05-15.45,2.1-1.42,4.26-2.79,6.48-4.05s4.54-2.35,6.83-3.37a104.71,104.71,0,0,1,13.76-4.71c9-2.48,17.41-4.15,24.43-6.25a81.51,81.51,0,0,0,16.38-6.48c.93-.52,1.79-.95,2.48-1.4l1.76-1.15Z" transform="translate(-0.09 -0.07)"/><path d="M198,203.67s3.38.2,8.46.76c2.54.27,5.5.65,8.68,1.13,1.6.26,3.19.46,4.94.86a6.93,6.93,0,0,1,2.63,1.21,7.68,7.68,0,0,1,1.77,2.31c1.35,2.85,4.64,3.7,7.7,4.67a60.57,60.57,0,0,0,8.54,1.9,64.59,64.59,0,0,0,9.14.68c1.66.05,3,.92,3.06,2s-1.4,2-3.19,2a59.25,59.25,0,0,1-9.63-1.36,63.53,63.53,0,0,1-8.8-2.63,31.92,31.92,0,0,1-4.76-2.15,10.44,10.44,0,0,1-2.26-1.76,8.82,8.82,0,0,1-1.58-2.42,5.77,5.77,0,0,0-1.17-1.86,5,5,0,0,0-1.91-1c-1.5-.47-3.19-.81-4.72-1.18-3.11-.71-6-1.3-8.53-1.76C201.31,204.12,198,203.67,198,203.67Z" transform="translate(-0.09 -0.07)"/><path d="M351.43,194.45l-.72.82c-.45.55-1.18,1.29-2.13,2.22a39.79,39.79,0,0,1-9.09,6.3,62.3,62.3,0,0,1-14.92,5.11,145.74,145.74,0,0,1-18,2.37c-6.13.53-12.23,1-17.82,2A61.84,61.84,0,0,0,274,217.43a40.62,40.62,0,0,0-9.31,5.51l-1.37,1.17-1,1c-.58.53-.88.92-1,1a10,10,0,0,1-1.51,1.24,8,8,0,0,1-1.6.76,3.41,3.41,0,0,1-3-.2,2.87,2.87,0,0,1-1.06-2.85,5.55,5.55,0,0,1,.62-2,7.44,7.44,0,0,1,1.42-2,17.8,17.8,0,0,1,1.33-1.23c.37-.31.8-.69,1.31-1.1l1.75-1.31a46.6,46.6,0,0,1,11.21-5.65,67.53,67.53,0,0,1,16.31-3.41c5.94-.57,12.16-.61,18.28-.69a144.61,144.61,0,0,0,17.76-1,60.44,60.44,0,0,0,14.85-3.9,38.72,38.72,0,0,0,9.35-5.51,30,30,0,0,0,2.28-2Z" transform="translate(-0.09 -0.07)"/><path d="M171.16,177l38.7,10.14L237,194.27c3.74.94,6.88,1.55,9.16,1.88s3.7.4,4,.45c2.34.25,4.24,1.52,4.28,3.16s-2.18,3-4.88,2.69c-.33,0-1.94-.22-4.4-.75a95,95,0,0,1-9.53-2.66c-7.46-2.48-17-5.79-26.57-9Z" transform="translate(-0.09 -0.07)"/><path d="M366,144s-.32.31-.95.86a18.94,18.94,0,0,1-3,2,28.43,28.43,0,0,1-5.2,2.19,67,67,0,0,1-7.1,1.76c-5.24,1.11-11.4,2.13-18,3.19s-13.68,2.15-20.67,3.51a153.36,153.36,0,0,0-20.18,5.19,85.6,85.6,0,0,0-16.42,7.49,38.09,38.09,0,0,0-9.8,7.7,18.84,18.84,0,0,0-2.82,4.1,9.85,9.85,0,0,1-2.46,3,4.62,4.62,0,0,1-3.23,1.2,3.12,3.12,0,0,1-2.55-2.57,7.77,7.77,0,0,1,.87-5.61,24.83,24.83,0,0,1,4.35-5.6,45.16,45.16,0,0,1,12.23-8.39,91.23,91.23,0,0,1,18.18-6.78,157.17,157.17,0,0,1,21.18-3.84c7.19-.87,14.33-1.43,21-2s12.85-1.14,18.12-1.86a66.3,66.3,0,0,0,7.11-1.2,28.72,28.72,0,0,0,5.24-1.77,18.65,18.65,0,0,0,3.09-1.8C365.65,144.32,366,144,366,144Z" transform="translate(-0.09 -0.07)"/><path d="M315.4,194.66l-.4.17c-.26.12-.65.27-1.15.46a37.09,37.09,0,0,1-4.22,1.28c-3.54.91-8.39,1.62-12.89,3.41a44.81,44.81,0,0,0-16.41,11c-.84.83-2,1.12-2.56.59s-.37-1.73.54-2.63a42.51,42.51,0,0,1,5.43-4.33,46.3,46.3,0,0,1,12.54-6c4.79-1.5,9.7-1.85,13.26-2.49a36.72,36.72,0,0,0,4.27-1c.51-.15.91-.27,1.17-.37Z" transform="translate(-0.09 -0.07)"/><path d="M311.78,215.86l-1.25.18a10.47,10.47,0,0,1-1.44.14,18.17,18.17,0,0,1-1.88.07A53.54,53.54,0,0,1,297.1,215a78.83,78.83,0,0,0-10.09-1.6,27.46,27.46,0,0,0-4.9.09c-.87.11-1.66-.28-1.77-.87s.59-1.17,1.58-1.29a27.24,27.24,0,0,1,5.28.25,78.87,78.87,0,0,1,10.15,2.37,53.42,53.42,0,0,0,9.87,2,17.8,17.8,0,0,0,1.87.07,9.29,9.29,0,0,0,1.44,0Z" transform="translate(-0.09 -0.07)"/><path d="M306.33,146,291,150.38a6.21,6.21,0,0,0-2.45,1.22,11.63,11.63,0,0,0-1.84,2l-3.09,4.24-3.28,4.47c-.62.8-1.54,1.12-2.05.72s-.42-1.37.2-2.17l3.57-4.24,3.4-4a12.79,12.79,0,0,1,2.25-2.14,7.52,7.52,0,0,1,3-1.25Z" transform="translate(-0.09 -0.07)"/><path d="M336,158.7s-8.21.45-16.58.11-16.85-1.32-17.37-1.41c-1-.18-1.79-.85-1.67-1.52s1-1.06,2.06-.89c.51.09,8.78,1.75,17.06,2.61S336,158.7,336,158.7Z" transform="translate(-0.09 -0.07)"/><path d="M341.43,143.69a8.91,8.91,0,0,1-.81.59,10.22,10.22,0,0,1-2.37,1.16,10.91,10.91,0,0,1-3.73.57,21,21,0,0,0-4.2.2,7,7,0,0,0-3.46,2,23.89,23.89,0,0,0-2.39,2.87L322,154.3c-.46.58-1.14.8-1.51.51s-.29-1,.17-1.58l2.64-3.06a26.16,26.16,0,0,1,2.73-2.83,8.19,8.19,0,0,1,4.09-2,21.61,21.61,0,0,1,4.37.11,10.81,10.81,0,0,0,3.64-.28,9.93,9.93,0,0,0,2.41-1A9.31,9.31,0,0,0,341.43,143.69Z" transform="translate(-0.09 -0.07)"/><path d="M205.64,181.48l.26.27a2.76,2.76,0,0,0,.9.53,9.07,9.07,0,0,0,3.72.13,11.74,11.74,0,0,1,5.4.7,23.58,23.58,0,0,1,5.52,3c1.75,1.24,3.42,2.54,5.07,3.58a32.06,32.06,0,0,0,4.76,2.47c1.46.62,2.72,1,3.74,1.35a11.64,11.64,0,0,1,1.8.79,2.42,2.42,0,0,1,1.07,1.25.93.93,0,0,1-.23,1,1.39,1.39,0,0,1-1,.21,2.63,2.63,0,0,1-1.1-.38,12.19,12.19,0,0,0-1.42-.72c-.87-.38-2.25-.89-3.75-1.66a34.19,34.19,0,0,1-4.83-3c-1.67-1.22-3.25-2.66-4.87-4a22.51,22.51,0,0,0-5.06-3.3,11.23,11.23,0,0,0-5.1-1.05,9.09,9.09,0,0,1-3.77-.41,3,3,0,0,1-.88-.61Z" transform="translate(-0.09 -0.07)"/><path d="M179.84,190.3l1.58.71c1,.44,2.46,1.08,4.23,1.74a32.13,32.13,0,0,0,6.18,1.72,31.23,31.23,0,0,0,7.33.19c2.52-.18,5.07-.51,7.48-.79l6.62-.77,7-.8c1.28-.1,2.38.48,2.45,1.31s-.9,1.57-2.18,1.67l-7,.33-6.69.3c-2.42.1-5,.24-7.57.24a32.37,32.37,0,0,1-7.57-.75,34.08,34.08,0,0,1-6.17-2.21c-1.73-.8-3.13-1.55-4.1-2.07Z" transform="translate(-0.09 -0.07)"/><path d="M137.82,377.62l1.31.78,1.56.93,2.22,1.08a48.11,48.11,0,0,0,14.64,4,106.87,106.87,0,0,0,21.57,0c4-.32,8.06-.75,12.27-1.17s8.57-.72,13-.78c8.75-.11,17.82.73,26.06,3.87a39.36,39.36,0,0,1,11.18,6.38c.85.62,1.55,1.39,2.32,2.07a25.18,25.18,0,0,1,2.11,2.16c1.29,1.45,2.41,2.87,3.44,4.17a41,41,0,0,0,5.53,6.13,13.45,13.45,0,0,0,4.74,2.61,24.87,24.87,0,0,0,5.84,1c3.72.31,7.31,2.34,7.38,5.14a4.26,4.26,0,0,1-2.26,3.59,9.72,9.72,0,0,1-6,1.27c-.3,0-1.17-.11-2.58-.36a29.33,29.33,0,0,1-5.71-1.59,23.33,23.33,0,0,1-7.55-4.89,49.61,49.61,0,0,1-6.22-7.84c-.93-1.38-1.86-2.74-2.84-4a19.55,19.55,0,0,0-1.56-1.83c-.57-.57-1.06-1.24-1.7-1.77a32.46,32.46,0,0,0-8.8-5.88c-6.81-3.19-15.13-4.68-23.5-5.17-4.19-.25-8.43-.26-12.6-.16s-8.36.24-12.38.27a108.9,108.9,0,0,1-22-1.63,49.13,49.13,0,0,1-14.59-5.14l-2.14-1.25-1.51-1.05Z" transform="translate(-0.09 -0.07)"/><path d="M110.63,356l4.15.16a71.76,71.76,0,0,0,10.9-.39,34.73,34.73,0,0,0,7-1.6c2.4-.82,4.81-2.09,7.5-3.22a30.06,30.06,0,0,1,4.29-1.47,33.58,33.58,0,0,1,4.61-.76,64.86,64.86,0,0,1,9.35,0c3.08.15,6.1.37,9,.29a65.23,65.23,0,0,0,8.6-.68,68.8,68.8,0,0,0,14.86-3.87A66.88,66.88,0,0,0,201,339.61c1.22-.69,2.16-1.32,2.86-1.77s1.14-.74,1.29-.84a7.61,7.61,0,0,1,3.7-1.26,3.24,3.24,0,0,1,2.81,1.09,3,3,0,0,1,.16,3A7.17,7.17,0,0,1,209,343a16.71,16.71,0,0,1-1.47.86c-.81.45-1.89,1.08-3.28,1.75a71.7,71.7,0,0,1-11.35,4.52,73.79,73.79,0,0,1-16.31,3,68.89,68.89,0,0,1-9.21.06c-3.13-.15-6.22-.61-9.24-1a62.93,62.93,0,0,0-8.87-.62A31.07,31.07,0,0,0,145,352a27.18,27.18,0,0,0-4,1.06c-2.64.88-5.21,2-7.82,2.69a35.27,35.27,0,0,1-7.4,1.12,72,72,0,0,1-11-.42Z" transform="translate(-0.09 -0.07)"/><path d="M162.6,360.23l1.27-.28c.81-.17,2-.47,3.32-.86a60.2,60.2,0,0,0,9.73-3.71A61.6,61.6,0,0,0,186,350c2.37-1.71,3.91-3,4.1-3.18.73-.59,1.65-.69,2-.22s.1,1.36-.66,2c-.19.15-1.88,1.42-4.45,3a62.94,62.94,0,0,1-9.66,4.81,62,62,0,0,1-10.09,3c-1.4.29-2.57.5-3.39.62Z" transform="translate(-0.09 -0.07)"/><path d="M149.21,343.42l.3-.07a6,6,0,0,1,.84-.14,9.47,9.47,0,0,1,3.08.22c2.5.47,5.68,2.1,9,1.68a12.09,12.09,0,0,1,5.27.2,29.66,29.66,0,0,1,4,2.28,19.2,19.2,0,0,0,2.93,1.08,6.66,6.66,0,0,1,1.49.7,1.81,1.81,0,0,1,.82,1.14.71.71,0,0,1-.31.81,1.25,1.25,0,0,1-.81.05,2.27,2.27,0,0,1-.8-.33,5.37,5.37,0,0,0-1.08-.58,19.42,19.42,0,0,1-3.1-1.42,32.24,32.24,0,0,0-3.6-2.46c-1.3-.6-3-.5-4.72-.47a13.26,13.26,0,0,1-5-.91c-1.51-.54-2.87-1.12-4.08-1.47a9.53,9.53,0,0,0-3-.44,5,5,0,0,0-.85.09Z" transform="translate(-0.09 -0.07)"/><path d="M177.36,342.74s2.89.65,5.74,1.63a58.85,58.85,0,0,1,5.82,2.32c.34.17.53.48.41.69s-.47.26-.8.09c-.17-.09-2.82-1.54-5.59-2.69S177.36,342.74,177.36,342.74Z" transform="translate(-0.09 -0.07)"/><path d="M100.67,321.32l.29,0a3.81,3.81,0,0,1,.81,0,7.75,7.75,0,0,1,2.78.89,19.55,19.55,0,0,0,3.73,1.62,27.49,27.49,0,0,0,4.62.77l13.41,1.39c.81.12,1.4.63,1.33,1.15s-.78.84-1.59.73l-13.28-2.33a28.71,28.71,0,0,1-4.67-1.14,20.35,20.35,0,0,1-3.69-1.93,7.49,7.49,0,0,0-2.64-1.07,4,4,0,0,0-.81,0Z" transform="translate(-0.09 -0.07)"/><path d="M103.41,335.38l1,0a25.62,25.62,0,0,0,2.62-.07,26.09,26.09,0,0,0,7.71-1.75,25.39,25.39,0,0,0,3.81-1.86c1.16-.69,2.2-1.47,3.19-2.1a12,12,0,0,1,2.67-1.33,5.77,5.77,0,0,1,1.37-.3c.88-.08,1.52.47,1.4.92s-.67.73-1.26.79a8,8,0,0,0-3.45,1.17c-1,.52-2.08,1.23-3.36,1.88a26.44,26.44,0,0,1-4.09,1.64,26.84,26.84,0,0,1-8,1.21,24.76,24.76,0,0,1-2.64-.13Z" transform="translate(-0.09 -0.07)"/><path d="M142.5,335.31l-.39-.1a4,4,0,0,1-1-.46,4.07,4.07,0,0,1-1.08-5.95,4.36,4.36,0,0,1,1.29-1.17c.29-.17.6-.1.66.07s-.09.4-.32.53a4,4,0,0,0-1.17.93,3.74,3.74,0,0,0-.89,2.87,4,4,0,0,0,1.57,2.63,4.1,4.1,0,0,0,.91.52Z" transform="translate(-0.09 -0.07)"/><path d="M156.9,333.5a5.34,5.34,0,0,0,.62.27,7.65,7.65,0,0,0,1.71.41,12.28,12.28,0,0,0,5.26-.62c1.86-.59,3.69-1.4,5.12-1.95l2.54-1c.47-.17.93-.06,1,.24s-.18.68-.65.85l-2.6.84c-1.46.45-3.34,1.12-5.3,1.59a12.48,12.48,0,0,1-5.44.24,7.88,7.88,0,0,1-1.7-.55A6.16,6.16,0,0,1,156.9,333.5Z" transform="translate(-0.09 -0.07)"/><path d="M214.52,352.37s1.23-.35,3-1.05a41.71,41.71,0,0,0,6.35-3.08,43.18,43.18,0,0,0,5.82-4.14c.75-.64,1.37-1.22,1.8-1.63a5,5,0,0,0,.62-.71,1.69,1.69,0,0,1,.48-.45,1.08,1.08,0,0,1,.58-.19.55.55,0,0,1,.45.49,1.41,1.41,0,0,1-.28,1,5,5,0,0,1-.87.89c-.5.42-1.16,1-2,1.56a42.7,42.7,0,0,1-6.25,3.81,43.89,43.89,0,0,1-6.63,2.64C215.78,352.11,214.52,352.37,214.52,352.37Z" transform="translate(-0.09 -0.07)"/><path d="M65.13,299.72l.27.24a3.4,3.4,0,0,0,.86.53,7.64,7.64,0,0,0,3.56.42c1.5-.12,3.29-.3,5.2-.34s4,.05,6,.21a102.77,102.77,0,0,1,11.34,1.7c3.12.63,5.27,1.14,5.52,1.19,1,.26,1.67,1,1.5,1.63s-1.11.95-2.1.69l-5.39-1.55a100.89,100.89,0,0,0-11-2.47c-2-.31-4-.54-5.91-.64s-3.64-.06-5.18-.05a7.82,7.82,0,0,1-3.61-.7,3.66,3.66,0,0,1-.84-.6Z" transform="translate(-0.09 -0.07)"/><path d="M61.51,255.36s.29,1.59.73,4,.88,5.68,2.53,8.36a9,9,0,0,0,1.46,1.77c.56.51,1.2,1,1.83,1.44a10.11,10.11,0,0,1,1.74,1.65A16.39,16.39,0,0,1,71,274.31c1.25,2.25,2,3.85,2.13,4,.36.75.26,1.53-.22,1.74s-1.16-.21-1.51-.94c-.1-.18-.76-1.8-1.81-4.05a9.54,9.54,0,0,0-2.37-3.18c-.56-.51-1.2-1-1.79-1.64a9.89,9.89,0,0,1-1.49-2.1c-1.58-3.07-1.71-6.41-2-8.8S61.51,255.36,61.51,255.36Z" transform="translate(-0.09 -0.07)"/><path d="M71.47,272.37a3.47,3.47,0,0,1,0,1.55,3.34,3.34,0,0,0-.26,1.56c0,.1,0,.18-.11.18s-.12-.07-.12-.17a3.56,3.56,0,0,1,.38-1.6A3.46,3.46,0,0,0,71.47,272.37Z" transform="translate(-0.09 -0.07)"/><path d="M80,269.61s.09.29.3.78a10.72,10.72,0,0,0,1,1.93,8.34,8.34,0,0,1,.82,1.26,2.46,2.46,0,0,1-.07,1.75,6.75,6.75,0,0,0-.47,1.64,4.29,4.29,0,0,0,.16,1.7c.65,2.28,2.57,3.9,3.85,5.36a9.57,9.57,0,0,1,2,3,1.33,1.33,0,0,1,0,1,.52.52,0,0,1-.55.32,1.31,1.31,0,0,1-.77-.89,9.1,9.1,0,0,0-1.57-2.69c-.57-.74-1.29-1.57-2-2.55a9,9,0,0,1-1.61-3.43,4.88,4.88,0,0,1,0-1.94,7.24,7.24,0,0,1,.62-1.72,2.1,2.1,0,0,0,.19-1.47,8.5,8.5,0,0,0-.7-1.26,10.91,10.91,0,0,1-.92-2C80.06,269.91,80,269.61,80,269.61Z" transform="translate(-0.09 -0.07)"/><path d="M179.57,138.48s1.22.07,3.37.33a66.93,66.93,0,0,1,20.82,6.08,43.47,43.47,0,0,0,6.43,2.75,12.7,12.7,0,0,0,3.31.53,14.79,14.79,0,0,0,3.38-.41,75.4,75.4,0,0,1,7.41-1.68,29.46,29.46,0,0,1,7.74,0,40.92,40.92,0,0,1,13,4.26,72.43,72.43,0,0,1,8.43,5.13c2,1.4,3.23,2.32,3.47,2.52,2,1.58,2.75,3.88,1.74,5.13s-3.42,1-5.35-.56L250.16,160a70.38,70.38,0,0,0-7.48-5.3,37,37,0,0,0-11.32-4.63,26,26,0,0,0-6.73-.54c-2.27.09-4.63.73-7.24,1.11a17.38,17.38,0,0,1-4,.17,14.76,14.76,0,0,1-3.92-.91,45.45,45.45,0,0,1-6.54-3.36,65.45,65.45,0,0,0-20-7.47C180.79,138.65,179.57,138.48,179.57,138.48Z" transform="translate(-0.09 -0.07)"/><path d="M230.19,143.56a11.45,11.45,0,0,0,2.62-.05,21.8,21.8,0,0,1,2.73-.17,5.32,5.32,0,0,1,3.09,1,12.26,12.26,0,0,1,2.13,2.43l1.68,2.23,1.76,2.35c.3.44.33,1,0,1.15s-.76,0-1.06-.44l-1.61-2.46-1.51-2.34a11.71,11.71,0,0,0-1.83-2.44,4.81,4.81,0,0,0-2.72-1.06,20.14,20.14,0,0,0-2.68,0A11.59,11.59,0,0,1,230.19,143.56Z" transform="translate(-0.09 -0.07)"/><path d="M214.55,153.11l3,1.1a8.12,8.12,0,0,0,6.7-.15c1.18-.46,2.34-1,3.49-1.52s2.24-.88,3.2-1.2a34.5,34.5,0,0,1,3.48-1c.65-.14,1.23.11,1.3.52s-.38.83-1,1c-.16,0-1.51.25-3.42.73-1,.24-2,.56-3.19.95s-2.35.88-3.61,1.27a10.38,10.38,0,0,1-3.83.55,10,10,0,0,1-3.2-.9Z" transform="translate(-0.09 -0.07)"/><path d="M279.23,142.74l-1.79,3c-.54.9-1.15,1.95-1.85,3.07a8.35,8.35,0,0,1-1.32,1.63,14.32,14.32,0,0,1-1.69,1.33c-2.31,1.62-4.54,3.32-6.45,4.52a12.26,12.26,0,0,1-3.73,1.67c-.77.18-1.43-.16-1.45-.61s.48-.85,1.09-1a12.07,12.07,0,0,0,3.4-1.27c1.86-1,4.28-2.57,6.69-4a14,14,0,0,0,1.7-1.14,7.84,7.84,0,0,0,1.33-1.43c.76-1,1.46-2.06,2.06-2.91Z" transform="translate(-0.09 -0.07)"/><path d="M210.82,123l.52-.18a11.6,11.6,0,0,1,1.53-.38,13.44,13.44,0,0,1,5.61.3,19.88,19.88,0,0,1,7.18,3.63,3.61,3.61,0,0,0,1.69.85,10.65,10.65,0,0,0,2.11,0c1.53-.09,3.09-.19,4.68-.22a29.93,29.93,0,0,1,9.47,1,22.17,22.17,0,0,1,4.15,1.79c1.23.66,2.33,1.28,3.35,1.73a17.48,17.48,0,0,0,5.24,1.41,20.24,20.24,0,0,0,2.38.1c1.39,0,2.65.63,2.82,1.63s-1.1,2-2.85,2a21,21,0,0,1-2.85-.3,20.37,20.37,0,0,1-6.1-2.1c-2.32-1.22-4.4-3-6.95-3.92a27.71,27.71,0,0,0-8.69-1.57c-1.53-.08-3.08-.1-4.62-.12a11.38,11.38,0,0,1-2.41-.18,4.79,4.79,0,0,1-2.15-1.25,18.93,18.93,0,0,0-6.61-4,13,13,0,0,0-5.43-.69,9.61,9.61,0,0,0-1.54.26Z" transform="translate(-0.09 -0.07)"/><path d="M227.5,123a3,3,0,0,1,.34,0,3.27,3.27,0,0,1,.87.18,6.51,6.51,0,0,1,2.26,1.54,22.67,22.67,0,0,0,2,1.91,5.33,5.33,0,0,0,1.11.67c.2.1.34.27.3.43s-.3.21-.55.1a5,5,0,0,1-1.17-.83,22.18,22.18,0,0,1-1.86-2.08,6.14,6.14,0,0,0-2.08-1.65,2.71,2.71,0,0,0-.85-.24A2.6,2.6,0,0,0,227.5,123Z" transform="translate(-0.09 -0.07)"/><path d="M233.32,131.54a2.58,2.58,0,0,1,.58-.07,5.14,5.14,0,0,1,1.52.28c.62.19,1.3.5,2.05.71a7.48,7.48,0,0,0,2.43.22c3.38-.19,6.8-1.23,6.67-1.43a.94.94,0,0,1,.78-.19.32.32,0,0,1,.19.39.9.9,0,0,1-.38.61c-.31.44-3.77,1.15-7.25,1.12a7.81,7.81,0,0,1-2.53-.42c-.77-.28-1.42-.63-2-.86a4.47,4.47,0,0,0-1.47-.38A2.66,2.66,0,0,0,233.32,131.54Z" transform="translate(-0.09 -0.07)"/><path d="M241.19,131.89a2.25,2.25,0,0,0,.29.17,3.36,3.36,0,0,0,.7.24,5.75,5.75,0,0,1,1.1.35c.06,0,.09.1.07.14a.12.12,0,0,1-.15,0,6.43,6.43,0,0,0-1-.41,3.75,3.75,0,0,1-.69-.3A1.66,1.66,0,0,1,241.19,131.89Z" transform="translate(-0.09 -0.07)"/><path d="M239.78,133.92a5.36,5.36,0,0,1,.55-.11,7.41,7.41,0,0,1,1.24-.1,1.13,1.13,0,0,0,.59-.17,2.46,2.46,0,0,0,.38-.41,2.25,2.25,0,0,1,.51-.43c.11,0,.22,0,.25,0a.2.2,0,0,1-.12.21,1.62,1.62,0,0,0-.48.34,2.57,2.57,0,0,1-.44.42,1.39,1.39,0,0,1-.69.15,7.3,7.3,0,0,0-1.24,0C240,133.88,239.78,133.92,239.78,133.92Z" transform="translate(-0.09 -0.07)"/><path d="M286.89,79.91l-1.18,1.45c-.74.94-1.82,2.27-3,4a25.69,25.69,0,0,0-3.16,6.13,16.65,16.65,0,0,0-.77,3.75c-.1,1.3,0,2.66,0,4.06a20.89,20.89,0,0,1-.27,4.3,21.82,21.82,0,0,1-1.18,4,54.46,54.46,0,0,1-3.28,6.62c-2.23,4-3.69,6.56-3.74,6.64-.72,1.19-1.92,1.78-2.68,1.32s-.8-1.81-.08-3l4.16-6.37c2.31-3.56,5.45-8.14,5.46-13.59.07-1.36.1-2.77.31-4.17a17.25,17.25,0,0,1,1.11-4A25.68,25.68,0,0,1,282.34,85c1.28-1.62,2.45-2.87,3.26-3.75Z" transform="translate(-0.09 -0.07)"/><path d="M246.92,59.73l.94,5.25c.28,1.58.61,3.42,1,5.4a35.55,35.55,0,0,0,1.39,6.05,10.16,10.16,0,0,0,3.58,4.66,35.11,35.11,0,0,0,4.68,2.81A14.7,14.7,0,0,0,262,85.3a5.89,5.89,0,0,0,1.51.17,2.83,2.83,0,0,1,1.16.26,1.26,1.26,0,0,1,.75.71,1,1,0,0,1-.35,1,2.38,2.38,0,0,1-1.6.52,7.83,7.83,0,0,1-2.08-.35,17,17,0,0,1-4-1.88,35.45,35.45,0,0,1-4.74-3.34,13.64,13.64,0,0,1-2.23-2.48A11.12,11.12,0,0,1,249,76.83a36.56,36.56,0,0,1-1-6.34L247.47,65Z" transform="translate(-0.09 -0.07)"/><path d="M277.25,41.94l.17.31a7.89,7.89,0,0,1,.43.9,10.92,10.92,0,0,1,.85,3.46,14.62,14.62,0,0,1-.48,5.08,19.48,19.48,0,0,1-2.38,5.42,61.25,61.25,0,0,1-7,8.63c-1,1.13-1.88,2.13-2.6,2.82a13.54,13.54,0,0,1-1.35,1.19c-.89.67-2,.6-2.22,0s.14-1.35.85-1.88c.09-.07.53-.37,1.21-1s1.59-1.47,2.71-2.55a62,62,0,0,0,7.47-7.91,16.68,16.68,0,0,0,3.46-9.84,11.09,11.09,0,0,0-.58-3.45,8.93,8.93,0,0,0-.36-.92Z" transform="translate(-0.09 -0.07)"/><path d="M245.75,31.36l0,.79a11.93,11.93,0,0,0,.07,2.07,5.06,5.06,0,0,0,1.05,2.62,17.2,17.2,0,0,0,2.52,2.2l7.6,6c.45.38.61.92.37,1.21s-.8.21-1.25-.17l-7.16-6.51a17.57,17.57,0,0,1-2.43-2.45,5.45,5.45,0,0,1-.91-2.86,12.53,12.53,0,0,1,.08-2.09Z" transform="translate(-0.09 -0.07)"/><path d="M276.87,91.88a3.55,3.55,0,0,0-.17.89,5.3,5.3,0,0,0,.24,2,22.81,22.81,0,0,0,1.35,2.77.37.37,0,0,1-.1.36.14.14,0,0,1-.21,0s0-.11-.05-.14a.15.15,0,0,1-.06-.11,7.2,7.2,0,0,0-.41-.86,8.29,8.29,0,0,1-.73-1.95,5.51,5.51,0,0,1-.1-2A3.44,3.44,0,0,1,276.87,91.88Z" transform="translate(-0.09 -0.07)"/><path d="M280.2,100.9l-1,2.76a7.37,7.37,0,0,1-.89,1.89,3,3,0,0,1-.79.75c-.18.1-.37.07-.41,0s.05-.25.19-.34a2.42,2.42,0,0,0,.72-.6,7.08,7.08,0,0,0,1-1.75Z" transform="translate(-0.09 -0.07)"/><path d="M271.81,94.94a2.5,2.5,0,0,1,.05.71,5.05,5.05,0,0,1-.55,1.77,13.63,13.63,0,0,0-1,2.39,8.8,8.8,0,0,0-.31,2.91,9.44,9.44,0,0,0,2,5.06,26.45,26.45,0,0,0,1.8,2.12c.34.38.42.87.17,1.1s-.73.09-1.08-.3a23.57,23.57,0,0,1-1.73-2.34,10.17,10.17,0,0,1-1.78-5.62,9.22,9.22,0,0,1,.55-3,14,14,0,0,1,1.21-2.36,5,5,0,0,0,.67-1.69A2.56,2.56,0,0,0,271.81,94.94Z" transform="translate(-0.09 -0.07)"/><path d="M255.37,76.43l.41,6.36c0,.2-.09.36-.21.36s-.24-.16-.24-.36Z" transform="translate(-0.09 -0.07)"/><path d="M242.73,79.11a2.07,2.07,0,0,0,.11.49,2.49,2.49,0,0,0,.79,1.05,10.12,10.12,0,0,0,3.7,1.55,18.59,18.59,0,0,0,6.07.44c.36,0,.68.13.71.37s-.26.47-.65.5a17,17,0,0,1-2.11-.05,18,18,0,0,1-4.14-.84,10.27,10.27,0,0,1-3.67-1.87,2.46,2.46,0,0,1-.73-1.14A1.67,1.67,0,0,1,242.73,79.11Z" transform="translate(-0.09 -0.07)"/><path d="M245,79.36l-.12,1-.09.69a.49.49,0,0,1-.15.36c-.07.06-.15,0-.15,0a.15.15,0,0,1,.06-.1.41.41,0,0,0,.12-.26l.14-.68Z" transform="translate(-0.09 -0.07)"/><path d="M327.68,339.33l-15.43,11.23a65.64,65.64,0,0,0-5.49,4.34,27,27,0,0,0-4,4.5,30.36,30.36,0,0,0-3,5.55c-.48,1-1.39,1.7-2.12,1.43s-1-1.45-.43-2.6a30.39,30.39,0,0,1,3.7-5.81,28.39,28.39,0,0,1,4.66-4.53,65.87,65.87,0,0,1,5.94-4Z" transform="translate(-0.09 -0.07)"/><path d="M362.43,367.58l-1.83,1c-1.17.61-2.85,1.48-4.91,2.43a47.18,47.18,0,0,1-7.34,2.73,26.13,26.13,0,0,1-9.1.93,31,31,0,0,1-9-2.44,74.59,74.59,0,0,0-7.32-2.74,19.12,19.12,0,0,0-5.3-.8,12.46,12.46,0,0,0-2.24.21,3.88,3.88,0,0,1-1.78-.11,1.71,1.71,0,0,1-1.16-.9,1.42,1.42,0,0,1,.35-1.49,3.48,3.48,0,0,1,2-1,13.57,13.57,0,0,1,2.89-.1,22,22,0,0,1,6.12,1.34,74.69,74.69,0,0,1,7.39,3.38,29,29,0,0,0,8.18,2.9,24.74,24.74,0,0,0,8.64-.26,45.81,45.81,0,0,0,7.37-2.14c2.12-.79,3.85-1.53,5.06-2.06Z" transform="translate(-0.09 -0.07)"/><path d="M361.52,331.4a6.11,6.11,0,0,0-1,.59,8.76,8.76,0,0,0-2,2.21c-.69,1-1.36,2.34-2.13,3.73L354,342.3l-6.77,12.38c-.44.73-1.17,1.1-1.64.82s-.5-1.1-.07-1.83l7.62-11.88c.92-1.42,1.84-2.84,2.69-4.18s1.63-2.59,2.42-3.59a9.06,9.06,0,0,1,2.23-2.1A5.14,5.14,0,0,1,361.52,331.4Z" transform="translate(-0.09 -0.07)"/><path d="M392.7,339.81s-7.38,1-14.84,2.23-15,2.67-15.45,2.74c-.94.15-1.78-.22-1.87-.82s.58-1.21,1.52-1.36c.47-.07,8.12-1,15.66-1.66S392.7,339.81,392.7,339.81Z" transform="translate(-0.09 -0.07)"/><path d="M337.61,369.32s-1.53.48-3,1.11a10.87,10.87,0,0,0-2.87,1.63.36.36,0,0,1-.41.1c-.11-.08-.08-.3.09-.45a10.37,10.37,0,0,1,3.11-1.5C336.05,369.69,337.61,369.32,337.61,369.32Z" transform="translate(-0.09 -0.07)"/><path d="M342,375a6,6,0,0,1-1,.11,8.52,8.52,0,0,1-2.28-.26,20.69,20.69,0,0,1-3.28-1.22c-.19-.09-.29-.27-.23-.39s.26-.14.45-.05a21.72,21.72,0,0,0,3.13,1.42,8.73,8.73,0,0,0,2.21.43A6.42,6.42,0,0,0,342,375Z" transform="translate(-0.09 -0.07)"/><path d="M346.91,370.71s-1.32.61-2.6,1.32-2.53,1.51-2.61,1.56-.34.09-.4,0,0-.26.18-.36,1.39-.77,2.74-1.38S346.91,370.71,346.91,370.71Z" transform="translate(-0.09 -0.07)"/><path d="M322.29,350.75l-.42.58a13.71,13.71,0,0,1-1.22,1.46,7.22,7.22,0,0,1-2.19,1.62,10.89,10.89,0,0,1-3,.82,72,72,0,0,1-8.81.71c-.54,0-1-.29-1-.63s.44-.61,1-.61a76.63,76.63,0,0,0,8.73-.08,10.44,10.44,0,0,0,3-.57,7.22,7.22,0,0,0,2.21-1.4,15.36,15.36,0,0,0,1.31-1.35Z" transform="translate(-0.09 -0.07)"/><path d="M316.53,353.23l-.65,1-.46.7a.61.61,0,0,1-.35.29c-.1,0-.17,0-.15-.09A.23.23,0,0,1,315,355a.51.51,0,0,0,.28-.21l.5-.66Z" transform="translate(-0.09 -0.07)"/><path d="M325.75,355a43.08,43.08,0,0,1-10.24.44c-.32,0-.56-.24-.53-.44s.3-.33.61-.3a45.77,45.77,0,0,0,5.18.45A42.91,42.91,0,0,0,325.75,355Z" transform="translate(-0.09 -0.07)"/><path d="M314.66,342.66s-.32.6-.86,1.47a9.45,9.45,0,0,1-1.08,1.4c-.46.48-1,.89-1.5,1.36a7.22,7.22,0,0,0-1.75,3.21c-.28,1-.41,1.73-.43,1.82-.08.33-.31.57-.53.52s-.33-.37-.25-.71a17.9,17.9,0,0,1,.56-1.84,7.77,7.77,0,0,1,2.13-3.3c.54-.46,1.12-.82,1.59-1.24a9.3,9.3,0,0,0,1.15-1.29C314.3,343.24,314.66,342.66,314.66,342.66Z" transform="translate(-0.09 -0.07)"/><path d="M316.67,343.62s-1.28.68-2.54,1.44-2.5,1.6-2.58,1.65-.33.1-.4,0,0-.26.17-.36,1.38-.8,2.71-1.46S316.67,343.62,316.67,343.62Z" transform="translate(-0.09 -0.07)"/><path d="M334.89,346.16a3,3,0,0,1,.46.51,3.77,3.77,0,0,1,.65,1.71,3.71,3.71,0,0,1-.56,2.56,26.25,26.25,0,0,1-2.11,2.11,7.2,7.2,0,0,0-1.46,2.43,9.31,9.31,0,0,0-.47,2.48,17.58,17.58,0,0,1-.33,2.85c-.15.55-.58.87-.87.73a.86.86,0,0,1-.28-1,17.14,17.14,0,0,0,.49-2.66,10.13,10.13,0,0,1,.71-2.67,8.05,8.05,0,0,1,1.78-2.55,24.06,24.06,0,0,0,2.23-1.91,3.48,3.48,0,0,0,.69-2.32,3.76,3.76,0,0,0-.51-1.7A3.19,3.19,0,0,0,334.89,346.16Z" transform="translate(-0.09 -0.07)"/><path d="M331.42,345.9l-.28,1.26a16.48,16.48,0,0,0-.5,2.79,6.1,6.1,0,0,0,1,2.61,3,3,0,0,1,.35,1.53c0,.32-.27.5-.42.43a.46.46,0,0,1-.19-.49,2.51,2.51,0,0,0-.21-1.27,6.26,6.26,0,0,1-.87-2.82,16.14,16.14,0,0,1,.72-2.8Z" transform="translate(-0.09 -0.07)"/></g></g></svg>